<svg xmlns="http://www.w3.org/2000/svg" xmlns:xlink="http://www.w3.org/1999/xlink" width="500" zoomAndPan="magnify" viewBox="0 0 375 374.999991" height="500" preserveAspectRatio="xMidYMid meet" version="1.0"><defs><g/><clipPath id="f65eb4ff67"><path d="M 165 153 L 239.890625 153 L 239.890625 194 L 165 194 Z M 165 153 " clip-rule="nonzero"/></clipPath><clipPath id="02a4b89ad4"><path d="M 151 182 L 239.890625 182 L 239.890625 210 L 151 210 Z M 151 182 " clip-rule="nonzero"/></clipPath><clipPath id="7db01147f9"><path d="M 55.328125 27.632812 L 303.578125 27.632812 L 303.578125 275.882812 L 55.328125 275.882812 Z M 55.328125 27.632812 " clip-rule="nonzero"/></clipPath><clipPath id="454d72aaa3"><path d="M 177.609375 18.75 L 197.847656 18.75 L 197.847656 38.992188 L 177.609375 38.992188 Z M 177.609375 18.75 " clip-rule="nonzero"/></clipPath><clipPath id="7455e252e2"><path d="M 187.730469 18.75 C 182.140625 18.75 177.609375 23.28125 177.609375 28.871094 C 177.609375 34.460938 182.140625 38.992188 187.730469 38.992188 C 193.316406 38.992188 197.847656 34.460938 197.847656 28.871094 C 197.847656 23.28125 193.316406 18.75 187.730469 18.75 Z M 187.730469 18.75 " clip-rule="nonzero"/></clipPath><clipPath id="143881b755"><path d="M 239.726562 38.992188 L 255.804688 38.992188 L 255.804688 55.070312 L 239.726562 55.070312 Z M 239.726562 38.992188 " clip-rule="nonzero"/></clipPath><clipPath id="472209379f"><path d="M 247.765625 38.992188 C 243.324219 38.992188 239.726562 42.589844 239.726562 47.03125 C 239.726562 51.472656 243.324219 55.070312 247.765625 55.070312 C 252.203125 55.070312 255.804688 51.472656 255.804688 47.03125 C 255.804688 42.589844 252.203125 38.992188 247.765625 38.992188 Z M 247.765625 38.992188 " clip-rule="nonzero"/></clipPath><clipPath id="0d2016a15a"><path d="M 280.039062 88.125 L 296.117188 88.125 L 296.117188 104.203125 L 280.039062 104.203125 Z M 280.039062 88.125 " clip-rule="nonzero"/></clipPath><clipPath id="dce6029b4b"><path d="M 288.078125 88.125 C 283.636719 88.125 280.039062 91.722656 280.039062 96.164062 C 280.039062 100.605469 283.636719 104.203125 288.078125 104.203125 C 292.519531 104.203125 296.117188 100.605469 296.117188 96.164062 C 296.117188 91.722656 292.519531 88.125 288.078125 88.125 Z M 288.078125 88.125 " clip-rule="nonzero"/></clipPath><clipPath id="3eee179b81"><path d="M 291.074219 141.753906 L 311.316406 141.753906 L 311.316406 161.996094 L 291.074219 161.996094 Z M 291.074219 141.753906 " clip-rule="nonzero"/></clipPath><clipPath id="a95d5ce10d"><path d="M 301.195312 141.753906 C 295.605469 141.753906 291.074219 146.285156 291.074219 151.875 C 291.074219 157.464844 295.605469 161.996094 301.195312 161.996094 C 306.785156 161.996094 311.316406 157.464844 311.316406 151.875 C 311.316406 146.285156 306.785156 141.753906 301.195312 141.753906 Z M 301.195312 141.753906 " clip-rule="nonzero"/></clipPath><clipPath id="1ab94ccce1"><path d="M 177.609375 263.699219 L 197.847656 263.699219 L 197.847656 283.941406 L 177.609375 283.941406 Z M 177.609375 263.699219 " clip-rule="nonzero"/></clipPath><clipPath id="b2c7a4a3a2"><path d="M 187.730469 263.699219 C 182.140625 263.699219 177.609375 268.230469 177.609375 273.820312 C 177.609375 279.410156 182.140625 283.941406 187.730469 283.941406 C 193.316406 283.941406 197.847656 279.410156 197.847656 273.820312 C 197.847656 268.230469 193.316406 263.699219 187.730469 263.699219 Z M 187.730469 263.699219 " clip-rule="nonzero"/></clipPath><clipPath id="73c2253cbc"><path d="M 280.039062 199.308594 L 296.117188 199.308594 L 296.117188 215.386719 L 280.039062 215.386719 Z M 280.039062 199.308594 " clip-rule="nonzero"/></clipPath><clipPath id="73c863749d"><path d="M 288.078125 199.308594 C 283.636719 199.308594 280.039062 202.90625 280.039062 207.347656 C 280.039062 211.789062 283.636719 215.386719 288.078125 215.386719 C 292.519531 215.386719 296.117188 211.789062 296.117188 207.347656 C 296.117188 202.90625 292.519531 199.308594 288.078125 199.308594 Z M 288.078125 199.308594 " clip-rule="nonzero"/></clipPath><clipPath id="378bb83ff7"><path d="M 105.347656 244.589844 L 121.425781 244.589844 L 121.425781 260.671875 L 105.347656 260.671875 Z M 105.347656 244.589844 " clip-rule="nonzero"/></clipPath><clipPath id="1ddf2f3202"><path d="M 113.386719 260.671875 C 117.828125 260.671875 121.425781 257.070312 121.425781 252.632812 C 121.425781 248.191406 117.828125 244.589844 113.386719 244.589844 C 108.949219 244.589844 105.347656 248.191406 105.347656 252.632812 C 105.347656 257.070312 108.949219 260.671875 113.386719 260.671875 Z M 113.386719 260.671875 " clip-rule="nonzero"/></clipPath><clipPath id="e941d7c200"><path d="M 63.484375 199.304688 L 79.5625 199.304688 L 79.5625 215.382812 L 63.484375 215.382812 Z M 63.484375 199.304688 " clip-rule="nonzero"/></clipPath><clipPath id="a95006571a"><path d="M 71.523438 215.382812 C 75.960938 215.382812 79.5625 211.785156 79.5625 207.34375 C 79.5625 202.902344 75.960938 199.304688 71.523438 199.304688 C 67.082031 199.304688 63.484375 202.902344 63.484375 207.34375 C 63.484375 211.785156 67.082031 215.382812 71.523438 215.382812 Z M 71.523438 215.382812 " clip-rule="nonzero"/></clipPath><clipPath id="901277ac47"><path d="M 46.925781 141.742188 L 67.167969 141.742188 L 67.167969 161.980469 L 46.925781 161.980469 Z M 46.925781 141.742188 " clip-rule="nonzero"/></clipPath><clipPath id="531464b4c8"><path d="M 57.046875 161.980469 C 62.636719 161.980469 67.167969 157.449219 67.167969 151.859375 C 67.167969 146.273438 62.636719 141.742188 57.046875 141.742188 C 51.457031 141.742188 46.925781 146.273438 46.925781 151.859375 C 46.925781 157.449219 51.457031 161.980469 57.046875 161.980469 Z M 57.046875 161.980469 " clip-rule="nonzero"/></clipPath><clipPath id="3cba3f0a40"><path d="M 63.484375 88.121094 L 79.5625 88.121094 L 79.5625 104.199219 L 63.484375 104.199219 Z M 63.484375 88.121094 " clip-rule="nonzero"/></clipPath><clipPath id="27b2138864"><path d="M 71.523438 104.199219 C 75.960938 104.199219 79.5625 100.601562 79.5625 96.160156 C 79.5625 91.722656 75.960938 88.121094 71.523438 88.121094 C 67.082031 88.121094 63.484375 91.722656 63.484375 96.160156 C 63.484375 100.601562 67.082031 104.199219 71.523438 104.199219 Z M 71.523438 104.199219 " clip-rule="nonzero"/></clipPath><clipPath id="e662b65f9f"><path d="M 105.347656 38.988281 L 121.425781 38.988281 L 121.425781 55.070312 L 105.347656 55.070312 Z M 105.347656 38.988281 " clip-rule="nonzero"/></clipPath><clipPath id="3406d5ea22"><path d="M 113.386719 55.070312 C 117.828125 55.070312 121.425781 51.46875 121.425781 47.027344 C 121.425781 42.589844 117.828125 38.988281 113.386719 38.988281 C 108.949219 38.988281 105.347656 42.589844 105.347656 47.027344 C 105.347656 51.46875 108.949219 55.070312 113.386719 55.070312 Z M 113.386719 55.070312 " clip-rule="nonzero"/></clipPath><clipPath id="dafb85d59c"><path d="M 239.726562 244.59375 L 255.804688 244.59375 L 255.804688 260.671875 L 239.726562 260.671875 Z M 239.726562 244.59375 " clip-rule="nonzero"/></clipPath><clipPath id="8b43280fde"><path d="M 247.765625 244.59375 C 243.324219 244.59375 239.726562 248.195312 239.726562 252.632812 C 239.726562 257.074219 243.324219 260.671875 247.765625 260.671875 C 252.203125 260.671875 255.804688 257.074219 255.804688 252.632812 C 255.804688 248.195312 252.203125 244.59375 247.765625 244.59375 Z M 247.765625 244.59375 " clip-rule="nonzero"/></clipPath></defs><path fill="#5e17eb" d="M 229.867188 97.578125 C 229.476562 94.539062 228.683594 91.546875 227.496094 88.6875 C 225.25 83.304688 221.617188 78.402344 216.664062 74.582031 C 201.519531 62.902344 179.769531 65.703125 168.082031 80.847656 L 134.714844 124.105469 C 144.359375 125.523438 155.875 130.691406 166.855469 139.15625 C 169.148438 140.921875 171.296875 142.75 173.3125 144.617188 C 175.808594 143.902344 178.429688 143.304688 181.160156 142.835938 C 178.085938 139.695312 174.675781 136.675781 170.972656 133.828125 C 162.960938 127.636719 154.480469 122.949219 146.3125 120.105469 L 173.421875 84.96875 C 177.96875 79.070312 184.550781 75.296875 191.9375 74.339844 C 199.328125 73.386719 206.648438 75.371094 212.546875 79.917969 C 216.402344 82.894531 219.414062 86.820312 221.265625 91.277344 C 222.21875 93.566406 222.867188 95.980469 223.183594 98.441406 C 224.140625 105.835938 222.152344 113.15625 217.601562 119.050781 L 200.078125 141.765625 C 202.789062 141.90625 205.433594 142.171875 207.992188 142.539062 L 222.9375 123.171875 C 228.777344 115.59375 231 106.375 229.867188 97.578125 " fill-opacity="1" fill-rule="nonzero"/><path fill="#5e17eb" d="M 159.347656 205.59375 C 147.640625 220.628906 125.972656 223.386719 110.859375 211.734375 C 95.714844 200.046875 92.910156 178.296875 104.59375 163.152344 L 130.378906 129.722656 C 138.871094 129.984375 150.882812 134.5 163.148438 143.960938 C 164.402344 144.925781 165.601562 145.902344 166.753906 146.890625 C 154.300781 152.011719 146.3125 160.449219 146.3125 170.167969 L 146.3125 186.074219 C 146.3125 193.691406 151.226562 200.523438 159.347656 205.59375 " fill-opacity="1" fill-rule="nonzero"/><g clip-path="url(#f65eb4ff67)"><path fill="#5e17eb" d="M 179.6875 179.21875 L 226.214844 153.441406 C 234.484375 157.734375 239.703125 163.699219 239.703125 170.167969 C 239.703125 182.921875 219.460938 193.699219 195.5 193.699219 C 186.738281 193.699219 178.488281 192.253906 171.535156 189.800781 C 169.324219 189.027344 167.246094 188.144531 165.324219 187.179688 L 179.6875 179.21875 " fill-opacity="1" fill-rule="nonzero"/></g><path fill="#5e17eb" d="M 151.308594 170.167969 C 151.308594 169.953125 151.3125 169.738281 151.328125 169.519531 C 151.332031 169.40625 151.339844 169.292969 151.355469 169.175781 C 151.359375 169.054688 151.367188 168.9375 151.386719 168.820312 C 151.402344 168.632812 151.429688 168.449219 151.460938 168.265625 C 151.480469 168.113281 151.507812 167.957031 151.542969 167.800781 C 151.578125 167.605469 151.625 167.410156 151.671875 167.222656 C 151.730469 166.980469 151.800781 166.738281 151.871094 166.5 C 151.933594 166.292969 152 166.089844 152.082031 165.882812 C 152.101562 165.816406 152.128906 165.742188 152.15625 165.671875 C 152.21875 165.511719 152.285156 165.34375 152.359375 165.171875 C 152.425781 165.011719 152.492188 164.855469 152.566406 164.703125 C 152.6875 164.445312 152.808594 164.199219 152.953125 163.945312 C 153.132812 163.589844 153.34375 163.234375 153.570312 162.882812 C 153.660156 162.742188 153.753906 162.59375 153.855469 162.453125 C 154.359375 161.703125 154.941406 160.96875 155.585938 160.246094 C 155.742188 160.070312 155.910156 159.898438 156.085938 159.714844 C 156.085938 159.707031 156.09375 159.703125 156.105469 159.6875 C 156.308594 159.480469 156.511719 159.277344 156.726562 159.066406 C 156.902344 158.898438 157.078125 158.730469 157.265625 158.5625 C 157.398438 158.441406 157.535156 158.320312 157.675781 158.199219 C 157.824219 158.0625 157.980469 157.929688 158.140625 157.792969 C 158.351562 157.617188 158.558594 157.445312 158.78125 157.273438 C 159.570312 156.648438 160.417969 156.039062 161.316406 155.457031 C 161.550781 155.292969 161.800781 155.136719 162.050781 154.988281 C 162.339844 154.808594 162.628906 154.632812 162.933594 154.457031 C 163.230469 154.28125 163.53125 154.105469 163.84375 153.9375 C 164.152344 153.769531 164.464844 153.601562 164.789062 153.433594 C 165.105469 153.269531 165.429688 153.101562 165.75 152.949219 C 165.917969 152.859375 166.085938 152.777344 166.261719 152.699219 C 166.585938 152.542969 166.917969 152.386719 167.253906 152.238281 C 167.429688 152.160156 167.609375 152.078125 167.792969 151.996094 C 168.125 151.855469 168.46875 151.714844 168.8125 151.574219 C 169.511719 151.28125 170.234375 151.007812 170.964844 150.738281 C 173.03125 149.984375 175.214844 149.320312 177.5 148.761719 C 177.585938 148.742188 177.671875 148.722656 177.769531 148.703125 C 178.300781 148.566406 178.839844 148.445312 179.378906 148.332031 C 179.75 148.25 180.121094 148.175781 180.492188 148.101562 C 180.578125 148.082031 180.671875 148.0625 180.765625 148.046875 C 181.007812 147.992188 181.253906 147.945312 181.503906 147.90625 C 181.5625 147.894531 181.621094 147.878906 181.683594 147.871094 C 182.136719 147.792969 182.585938 147.710938 183.042969 147.644531 C 183.214844 147.609375 183.390625 147.582031 183.5625 147.554688 C 184.109375 147.46875 184.65625 147.394531 185.207031 147.320312 C 185.222656 147.3125 185.242188 147.3125 185.257812 147.3125 C 188.558594 146.875 191.988281 146.644531 195.5 146.644531 C 195.769531 146.644531 196.035156 146.644531 196.300781 146.652344 C 196.382812 146.652344 196.464844 146.652344 196.546875 146.660156 C 197.050781 146.660156 197.550781 146.671875 198.046875 146.695312 C 198.210938 146.695312 198.371094 146.699219 198.535156 146.707031 C 199.160156 146.726562 199.792969 146.761719 200.414062 146.800781 C 201.042969 146.839844 201.660156 146.882812 202.273438 146.933594 C 202.449219 146.949219 202.617188 146.960938 202.789062 146.984375 C 203.339844 147.035156 203.886719 147.097656 204.433594 147.15625 C 210.261719 147.820312 215.707031 149.121094 220.492188 150.90625 L 184.789062 170.6875 L 160.351562 184.226562 C 154.695312 180.277344 151.308594 175.382812 151.308594 170.167969 " fill-opacity="1" fill-rule="nonzero"/><g clip-path="url(#02a4b89ad4)"><path fill="#5e17eb" d="M 239.703125 182.878906 L 239.703125 186.074219 C 239.703125 198.824219 219.460938 209.597656 195.5 209.597656 C 182.539062 209.597656 170.65625 206.441406 162.496094 201.527344 C 161.699219 201.050781 160.9375 200.550781 160.222656 200.046875 C 160.007812 199.898438 159.800781 199.742188 159.589844 199.589844 C 159.382812 199.433594 159.179688 199.277344 158.976562 199.125 C 157.742188 198.160156 156.636719 197.148438 155.679688 196.105469 C 155.546875 195.957031 155.410156 195.808594 155.285156 195.652344 C 155.066406 195.410156 154.867188 195.167969 154.675781 194.917969 C 154.546875 194.753906 154.425781 194.59375 154.304688 194.433594 C 153.390625 193.199219 152.675781 191.917969 152.167969 190.605469 C 152.117188 190.460938 152.0625 190.320312 152.015625 190.179688 C 151.953125 190.003906 151.894531 189.820312 151.839844 189.648438 C 151.832031 189.613281 151.820312 189.574219 151.804688 189.53125 C 151.757812 189.363281 151.710938 189.195312 151.671875 189.019531 C 151.625 188.832031 151.578125 188.636719 151.542969 188.441406 C 151.503906 188.246094 151.46875 188.050781 151.441406 187.855469 C 151.40625 187.660156 151.386719 187.460938 151.367188 187.261719 C 151.355469 187.121094 151.339844 186.976562 151.332031 186.828125 C 151.3125 186.582031 151.308594 186.324219 151.308594 186.074219 L 151.308594 182.878906 C 151.824219 183.5 152.386719 184.105469 152.976562 184.699219 C 153.234375 184.949219 153.492188 185.203125 153.761719 185.449219 C 154.3125 185.960938 154.886719 186.457031 155.492188 186.949219 C 155.675781 187.09375 155.855469 187.242188 156.039062 187.375 C 156.234375 187.539062 156.429688 187.683594 156.632812 187.835938 C 156.644531 187.839844 156.660156 187.855469 156.671875 187.859375 C 157.007812 188.117188 157.347656 188.359375 157.695312 188.59375 C 158.054688 188.84375 158.417969 189.089844 158.789062 189.324219 C 158.796875 189.328125 158.800781 189.335938 158.808594 189.335938 C 159.152344 189.558594 159.496094 189.78125 159.851562 189.992188 C 159.960938 190.058594 160.0625 190.117188 160.171875 190.179688 C 160.40625 190.328125 160.648438 190.460938 160.890625 190.597656 C 161.125 190.738281 161.371094 190.875 161.613281 191 C 161.929688 191.175781 162.253906 191.351562 162.574219 191.507812 C 162.871094 191.667969 163.175781 191.824219 163.480469 191.972656 C 163.566406 192.011719 163.648438 192.058594 163.734375 192.09375 C 164.039062 192.242188 164.347656 192.390625 164.664062 192.539062 C 164.976562 192.679688 165.292969 192.820312 165.609375 192.957031 C 165.925781 193.097656 166.242188 193.230469 166.566406 193.367188 C 166.820312 193.476562 167.085938 193.582031 167.355469 193.683594 C 167.660156 193.8125 167.960938 193.925781 168.265625 194.039062 C 176.015625 196.984375 185.351562 198.683594 195.5 198.683594 C 215.160156 198.683594 231.777344 192.316406 239.703125 182.878906 " fill-opacity="1" fill-rule="nonzero"/></g><g clip-path="url(#7db01147f9)"><path fill="#d9d9d9" d="M 179.570312 27.632812 C 111.019531 27.632812 55.328125 83.324219 55.328125 151.875 C 55.328125 220.425781 111.019531 276.117188 179.570312 276.117188 C 248.117188 276.117188 303.8125 220.425781 303.8125 151.875 C 303.8125 83.324219 248.117188 27.632812 179.570312 27.632812 Z M 179.570312 33.035156 C 245.269531 33.035156 298.410156 86.171875 298.410156 151.875 C 298.410156 217.578125 245.269531 270.714844 179.570312 270.714844 C 113.867188 270.714844 60.726562 217.578125 60.726562 151.875 C 60.726562 86.171875 113.867188 33.035156 179.570312 33.035156 Z M 179.570312 33.035156 " fill-opacity="1" fill-rule="nonzero"/></g><g fill="#545454" fill-opacity="1"><g transform="translate(46.941093, 338.949489)"><g><path d="M 41.09375 -46.46875 L 49.25 -46.46875 L 49.25 0 L 40.421875 0 L 40.421875 -29.265625 L 29.078125 -10.953125 L 23.828125 -10.953125 L 12.484375 -29.265625 L 12.484375 0 L 3.65625 0 L 3.65625 -46.46875 L 11.875 -46.46875 L 26.421875 -22.96875 Z M 41.09375 -46.46875 "/></g></g></g><g fill="#545454" fill-opacity="1"><g transform="translate(99.841132, 338.949489)"><g><path d="M 31.0625 -12.8125 L 9.75 -12.8125 C 10.238281 -11.257812 11.09375 -9.992188 12.3125 -9.015625 C 13.53125 -8.046875 15.046875 -7.5625 16.859375 -7.5625 C 19.472656 -7.5625 21.441406 -8.515625 22.765625 -10.421875 L 30.0625 -6.84375 C 28.738281 -4.625 26.9375 -2.835938 24.65625 -1.484375 C 22.375 -0.140625 19.773438 0.53125 16.859375 0.53125 C 13.804688 0.53125 11.050781 -0.207031 8.59375 -1.6875 C 6.132812 -3.175781 4.195312 -5.171875 2.78125 -7.671875 C 1.363281 -10.171875 0.65625 -12.945312 0.65625 -16 C 0.65625 -19.09375 1.34375 -21.878906 2.71875 -24.359375 C 4.09375 -26.835938 5.972656 -28.804688 8.359375 -30.265625 C 10.753906 -31.722656 13.476562 -32.453125 16.53125 -32.453125 C 19.582031 -32.453125 22.210938 -31.722656 24.421875 -30.265625 C 26.640625 -28.804688 28.34375 -26.835938 29.53125 -24.359375 C 30.726562 -21.878906 31.328125 -19.09375 31.328125 -16 C 31.328125 -15.425781 31.304688 -14.875 31.265625 -14.34375 C 31.222656 -13.8125 31.15625 -13.300781 31.0625 -12.8125 Z M 16.53125 -24.421875 C 14.664062 -24.421875 13.15625 -23.910156 12 -22.890625 C 10.851562 -21.878906 10.082031 -20.578125 9.6875 -18.984375 L 22.96875 -18.984375 C 22.613281 -20.578125 21.914062 -21.878906 20.875 -22.890625 C 19.832031 -23.910156 18.382812 -24.421875 16.53125 -24.421875 Z M 16.53125 -24.421875 "/></g></g></g><g fill="#545454" fill-opacity="1"><g transform="translate(133.160857, 338.949489)"><g><path d="M 24.421875 -46.46875 L 33.25 -46.46875 L 33.25 0 L 24.421875 0 L 24.421875 -2.71875 C 23.316406 -1.75 22.046875 -0.960938 20.609375 -0.359375 C 19.171875 0.234375 17.585938 0.53125 15.859375 0.53125 C 12.804688 0.53125 10.140625 -0.207031 7.859375 -1.6875 C 5.585938 -3.175781 3.816406 -5.171875 2.546875 -7.671875 C 1.285156 -10.171875 0.65625 -12.945312 0.65625 -16 C 0.65625 -19.09375 1.285156 -21.878906 2.546875 -24.359375 C 3.816406 -26.835938 5.585938 -28.804688 7.859375 -30.265625 C 10.140625 -31.722656 12.804688 -32.453125 15.859375 -32.453125 C 17.585938 -32.453125 19.171875 -32.164062 20.609375 -31.59375 C 22.046875 -31.019531 23.316406 -30.222656 24.421875 -29.203125 Z M 16.859375 -7.5625 C 19.242188 -7.5625 21.097656 -8.367188 22.421875 -9.984375 C 23.753906 -11.597656 24.421875 -13.601562 24.421875 -16 C 24.421875 -18.382812 23.753906 -20.382812 22.421875 -22 C 21.097656 -23.613281 19.242188 -24.421875 16.859375 -24.421875 C 14.472656 -24.421875 12.613281 -23.613281 11.28125 -22 C 9.957031 -20.382812 9.296875 -18.382812 9.296875 -16 C 9.296875 -13.601562 9.957031 -11.597656 11.28125 -9.984375 C 12.613281 -8.367188 14.472656 -7.5625 16.859375 -7.5625 Z M 16.859375 -7.5625 "/></g></g></g><g fill="#545454" fill-opacity="1"><g transform="translate(169.732904, 338.949489)"><g><path d="M 6.96875 -36.4375 C 5.59375 -36.4375 4.414062 -36.910156 3.4375 -37.859375 C 2.46875 -38.816406 1.984375 -39.984375 1.984375 -41.359375 C 1.984375 -42.765625 2.46875 -43.941406 3.4375 -44.890625 C 4.414062 -45.847656 5.59375 -46.328125 6.96875 -46.328125 C 8.34375 -46.328125 9.503906 -45.847656 10.453125 -44.890625 C 11.398438 -43.941406 11.875 -42.765625 11.875 -41.359375 C 11.875 -39.984375 11.398438 -38.816406 10.453125 -37.859375 C 9.503906 -36.910156 8.34375 -36.4375 6.96875 -36.4375 Z M 2.515625 0 L 2.515625 -32 L 11.34375 -32 L 11.34375 0 Z M 2.515625 0 "/></g></g></g><g fill="#545454" fill-opacity="1"><g transform="translate(184.940433, 338.949489)"><g><path d="M 21.046875 -25.015625 C 25.460938 -24.085938 28.890625 -23.035156 31.328125 -21.859375 C 33.765625 -20.691406 35.46875 -19.3125 36.4375 -17.71875 C 37.414062 -16.125 37.90625 -14.175781 37.90625 -11.875 C 37.90625 -9.40625 37.195312 -7.226562 35.78125 -5.34375 C 34.363281 -3.457031 32.414062 -2.003906 29.9375 -0.984375 C 27.457031 0.0234375 24.582031 0.53125 21.3125 0.53125 C 18.957031 0.53125 16.539062 0.1875 14.0625 -0.5 C 11.59375 -1.1875 9.394531 -2.289062 7.46875 -3.8125 C 5.539062 -5.34375 4.15625 -7.367188 3.3125 -9.890625 L 6.640625 -11.015625 C 7.429688 -8.453125 9.097656 -6.460938 11.640625 -5.046875 C 14.191406 -3.628906 17.414062 -2.921875 21.3125 -2.921875 C 22.59375 -2.921875 23.984375 -3.0625 25.484375 -3.34375 C 26.992188 -3.632812 28.429688 -4.125 29.796875 -4.8125 C 31.171875 -5.5 32.289062 -6.414062 33.15625 -7.5625 C 34.019531 -8.71875 34.453125 -10.15625 34.453125 -11.875 C 34.453125 -13.914062 33.875 -15.519531 32.71875 -16.6875 C 31.570312 -17.863281 29.945312 -18.828125 27.84375 -19.578125 C 25.738281 -20.328125 23.207031 -21.035156 20.25 -21.703125 C 18.34375 -22.148438 16.445312 -22.660156 14.5625 -23.234375 C 12.6875 -23.804688 10.972656 -24.546875 9.421875 -25.453125 C 7.878906 -26.359375 6.640625 -27.519531 5.703125 -28.9375 C 4.773438 -30.351562 4.3125 -32.101562 4.3125 -34.1875 C 4.3125 -36.96875 5.019531 -39.296875 6.4375 -41.171875 C 7.851562 -43.054688 9.710938 -44.484375 12.015625 -45.453125 C 14.316406 -46.429688 16.816406 -46.921875 19.515625 -46.921875 C 23.847656 -46.921875 27.453125 -46.015625 30.328125 -44.203125 C 33.203125 -42.390625 34.992188 -39.910156 35.703125 -36.765625 L 32.453125 -35.640625 C 31.972656 -38.117188 30.582031 -40.039062 28.28125 -41.40625 C 25.976562 -42.78125 23.035156 -43.46875 19.453125 -43.46875 C 15.421875 -43.46875 12.460938 -42.570312 10.578125 -40.78125 C 8.703125 -38.988281 7.765625 -36.789062 7.765625 -34.1875 C 7.765625 -32.414062 8.285156 -30.960938 9.328125 -29.828125 C 10.367188 -28.703125 11.882812 -27.773438 13.875 -27.046875 C 15.863281 -26.316406 18.253906 -25.640625 21.046875 -25.015625 Z M 21.046875 -25.015625 "/></g></g></g><g fill="#545454" fill-opacity="1"><g transform="translate(226.822405, 338.949489)"><g><path d="M 29.265625 -32 L 17.515625 -0.65625 C 16.640625 1.726562 15.820312 3.78125 15.0625 5.5 C 14.3125 7.226562 13.453125 8.710938 12.484375 9.953125 C 11.679688 10.972656 10.570312 11.789062 9.15625 12.40625 C 7.738281 13.03125 5.878906 13.164062 3.578125 12.8125 L 4.375 9.421875 C 5.96875 9.640625 7.25 9.503906 8.21875 9.015625 C 9.195312 8.535156 10.082031 7.578125 10.875 6.140625 C 11.675781 4.703125 12.585938 2.632812 13.609375 -0.0625 L 1.59375 -32 L 5.3125 -32 L 15.40625 -4.84375 L 25.546875 -32 Z M 29.265625 -32 "/></g></g></g><g fill="#545454" fill-opacity="1"><g transform="translate(257.022552, 338.949489)"><g><path d="M 17.71875 -32.53125 C 22.1875 -32.53125 25.394531 -31.125 27.34375 -28.3125 C 29.289062 -25.5 30.265625 -21.789062 30.265625 -17.1875 C 30.265625 -15.195312 30.265625 -13.195312 30.265625 -11.1875 C 30.265625 -9.175781 30.265625 -7.316406 30.265625 -5.609375 C 30.265625 -3.898438 30.265625 -2.535156 30.265625 -1.515625 C 30.265625 -0.503906 30.265625 0 30.265625 0 L 26.8125 0 C 26.8125 0 26.8125 -0.539062 26.8125 -1.625 C 26.8125 -2.707031 26.8125 -4.109375 26.8125 -5.828125 C 26.8125 -7.554688 26.8125 -9.425781 26.8125 -11.4375 C 26.8125 -13.457031 26.8125 -15.375 26.8125 -17.1875 C 26.8125 -21.4375 25.984375 -24.476562 24.328125 -26.3125 C 22.671875 -28.15625 20.46875 -29.078125 17.71875 -29.078125 C 16 -29.078125 14.40625 -28.675781 12.9375 -27.875 C 11.476562 -27.082031 10.304688 -25.8125 9.421875 -24.0625 C 8.535156 -22.3125 8.09375 -20.019531 8.09375 -17.1875 L 8.09375 0 L 4.640625 0 L 4.640625 -32 L 8.09375 -32 L 8.09375 -27.28125 C 9.195312 -28.957031 10.554688 -30.25 12.171875 -31.15625 C 13.796875 -32.070312 15.644531 -32.53125 17.71875 -32.53125 Z M 17.71875 -32.53125 "/></g></g></g><g fill="#545454" fill-opacity="1"><g transform="translate(291.935248, 338.949489)"><g><path d="M 18.1875 -2.859375 C 20.394531 -2.859375 22.363281 -3.375 24.09375 -4.40625 C 25.820312 -5.445312 27.191406 -6.8125 28.203125 -8.5 L 31.203125 -7.03125 C 29.910156 -4.78125 28.132812 -2.96875 25.875 -1.59375 C 23.625 -0.21875 21.0625 0.46875 18.1875 0.46875 C 15.175781 0.46875 12.5 -0.269531 10.15625 -1.75 C 7.8125 -3.238281 5.972656 -5.234375 4.640625 -7.734375 C 3.316406 -10.234375 2.65625 -12.988281 2.65625 -16 C 2.65625 -19.050781 3.316406 -21.828125 4.640625 -24.328125 C 5.972656 -26.828125 7.8125 -28.816406 10.15625 -30.296875 C 12.5 -31.785156 15.175781 -32.53125 18.1875 -32.53125 C 21.0625 -32.53125 23.625 -31.84375 25.875 -30.46875 C 28.132812 -29.09375 29.910156 -27.273438 31.203125 -25.015625 L 28.203125 -23.5625 C 27.191406 -25.238281 25.820312 -26.597656 24.09375 -27.640625 C 22.363281 -28.679688 20.394531 -29.203125 18.1875 -29.203125 C 15.75 -29.203125 13.632812 -28.601562 11.84375 -27.40625 C 10.050781 -26.21875 8.65625 -24.625 7.65625 -22.625 C 6.664062 -20.632812 6.171875 -18.425781 6.171875 -16 C 6.171875 -13.601562 6.664062 -11.410156 7.65625 -9.421875 C 8.65625 -7.429688 10.050781 -5.835938 11.84375 -4.640625 C 13.632812 -3.453125 15.75 -2.859375 18.1875 -2.859375 Z M 18.1875 -2.859375 "/></g></g></g><g clip-path="url(#454d72aaa3)"><g clip-path="url(#7455e252e2)"><path fill="#5e17eb" d="M 177.609375 18.75 L 197.847656 18.75 L 197.847656 38.992188 L 177.609375 38.992188 Z M 177.609375 18.75 " fill-opacity="1" fill-rule="nonzero"/></g></g><g clip-path="url(#143881b755)"><g clip-path="url(#472209379f)"><path fill="#5e17eb" d="M 239.726562 38.992188 L 255.804688 38.992188 L 255.804688 55.070312 L 239.726562 55.070312 Z M 239.726562 38.992188 " fill-opacity="1" fill-rule="nonzero"/></g></g><g clip-path="url(#0d2016a15a)"><g clip-path="url(#dce6029b4b)"><path fill="#5e17eb" d="M 280.039062 88.125 L 296.117188 88.125 L 296.117188 104.203125 L 280.039062 104.203125 Z M 280.039062 88.125 " fill-opacity="1" fill-rule="nonzero"/></g></g><g clip-path="url(#3eee179b81)"><g clip-path="url(#a95d5ce10d)"><path fill="#5e17eb" d="M 291.074219 141.753906 L 311.316406 141.753906 L 311.316406 161.996094 L 291.074219 161.996094 Z M 291.074219 141.753906 " fill-opacity="1" fill-rule="nonzero"/></g></g><g clip-path="url(#1ab94ccce1)"><g clip-path="url(#b2c7a4a3a2)"><path fill="#5e17eb" d="M 177.609375 263.699219 L 197.847656 263.699219 L 197.847656 283.941406 L 177.609375 283.941406 Z M 177.609375 263.699219 " fill-opacity="1" fill-rule="nonzero"/></g></g><g clip-path="url(#73c2253cbc)"><g clip-path="url(#73c863749d)"><path fill="#5e17eb" d="M 280.039062 199.308594 L 296.117188 199.308594 L 296.117188 215.386719 L 280.039062 215.386719 Z M 280.039062 199.308594 " fill-opacity="1" fill-rule="nonzero"/></g></g><g clip-path="url(#378bb83ff7)"><g clip-path="url(#1ddf2f3202)"><path fill="#5e17eb" d="M 121.425781 260.671875 L 105.347656 260.671875 L 105.347656 244.589844 L 121.425781 244.589844 Z M 121.425781 260.671875 " fill-opacity="1" fill-rule="nonzero"/></g></g><g clip-path="url(#e941d7c200)"><g clip-path="url(#a95006571a)"><path fill="#5e17eb" d="M 79.5625 215.382812 L 63.484375 215.382812 L 63.484375 199.304688 L 79.5625 199.304688 Z M 79.5625 215.382812 " fill-opacity="1" fill-rule="nonzero"/></g></g><g clip-path="url(#901277ac47)"><g clip-path="url(#531464b4c8)"><path fill="#5e17eb" d="M 67.167969 161.980469 L 46.925781 161.980469 L 46.925781 141.742188 L 67.167969 141.742188 Z M 67.167969 161.980469 " fill-opacity="1" fill-rule="nonzero"/></g></g><g clip-path="url(#3cba3f0a40)"><g clip-path="url(#27b2138864)"><path fill="#5e17eb" d="M 79.5625 104.199219 L 63.484375 104.199219 L 63.484375 88.121094 L 79.5625 88.121094 Z M 79.5625 104.199219 " fill-opacity="1" fill-rule="nonzero"/></g></g><g clip-path="url(#e662b65f9f)"><g clip-path="url(#3406d5ea22)"><path fill="#5e17eb" d="M 121.425781 55.070312 L 105.347656 55.070312 L 105.347656 38.988281 L 121.425781 38.988281 Z M 121.425781 55.070312 " fill-opacity="1" fill-rule="nonzero"/></g></g><g clip-path="url(#dafb85d59c)"><g clip-path="url(#8b43280fde)"><path fill="#5e17eb" d="M 239.726562 244.59375 L 255.804688 244.59375 L 255.804688 260.671875 L 239.726562 260.671875 Z M 239.726562 244.59375 " fill-opacity="1" fill-rule="nonzero"/></g></g></svg>